<svg version="1.1" viewBox="0.0 0.0 300.0 300.0" fill="none" stroke="none" stroke-linecap="square" stroke-miterlimit="10" xmlns:xlink="http://www.w3.org/1999/xlink" xmlns="http://www.w3.org/2000/svg"><clipPath id="p.0"><path d="m0 0l300.0 0l0 300.0l-300.0 0l0 -300.0z" clip-rule="nonzero"/></clipPath><g clip-path="url(#p.0)"><path fill="#000000" fill-opacity="0.0" d="m0 0l300.0 0l0 300.0l-300.0 0z" fill-rule="evenodd"/><g filter="url(#shadowFilter-p.1)"><use xlink:href="#p.1" transform="matrix(1.0 0.0 0.0 1.0 2.999543044619422 -0.05235721784775369)"/></g><defs><filter id="shadowFilter-p.1" filterUnits="userSpaceOnUse"><feGaussianBlur in="SourceAlpha" stdDeviation="2.5" result="blur"/><feComponentTransfer in="blur" color-interpolation-filters="sRGB"><feFuncR type="linear" slope="0" intercept="0.0"/><feFuncG type="linear" slope="0" intercept="0.0"/><feFuncB type="linear" slope="0" intercept="0.0"/><feFuncA type="linear" slope="1.0" intercept="0"/></feComponentTransfer></filter></defs><g id="p.1"><path fill="#000000" fill-opacity="0.0" d="m38.504402 195.88765l0 -175.46175l114.817894 114.6906l105.39032 -105.27795l0 243.08008" fill-rule="evenodd"/><path stroke="#434343" stroke-width="12.0" stroke-linejoin="round" d="m38.504402 195.88765l0 -175.46175l114.817894 114.6906l105.39032 -105.27795l0 243.08008" fill-rule="evenodd"/></g><path fill="#e06666" fill-opacity="0.7933" d="m69.39419 48.90347l41.543312 0l-13.847633 13.84763l-13.848045 0l0 13.848045l-13.847633 13.847633z" fill-rule="evenodd"/><path stroke="#434343" stroke-width="1.0" stroke-linejoin="round" stroke-linecap="butt" d="m69.39419 48.90347l41.543312 0l-13.847633 13.84763l-13.848045 0l0 13.848045l-13.847633 13.847633z" fill-rule="evenodd"/><g filter="url(#shadowFilter-p.2)"><use xlink:href="#p.2" transform="matrix(1.0 0.0 0.0 1.0 2.9995430446194127 -0.05235721784775369)"/></g><defs><filter id="shadowFilter-p.2" filterUnits="userSpaceOnUse"><feGaussianBlur in="SourceAlpha" stdDeviation="2.5" result="blur"/><feComponentTransfer in="blur" color-interpolation-filters="sRGB"><feFuncR type="linear" slope="0" intercept="0.0"/><feFuncG type="linear" slope="0" intercept="0.0"/><feFuncB type="linear" slope="0" intercept="0.0"/><feFuncA type="linear" slope="0.6" intercept="0"/></feComponentTransfer></filter></defs><g id="p.2"><path fill="#000000" fill-opacity="0.0" d="m262.80966 101.40454l0 170.83466l-48.472443 0l0 -170.83466z" fill-rule="evenodd"/><path fill="#434343" d="m241.37904 136.22812q-1.203125 0 -2.21875 -0.359375q-1.015625 -0.34375 -1.75 -1.125q-0.734375 -0.765625 -1.140625 -2.015625q-0.40625 -1.234375 -0.40625 -3.015625l0 -7.2187576l-5.09375 0l0 -4.359375l16.109375 0l0 11.578133q0 1.78125 -0.40625 3.015625q-0.40625 1.25 -1.140625 2.015625q-0.734375 0.78125 -1.75 1.125q-1.0 0.359375 -2.203125 0.359375zm-0.078125 -4.390625q0.5625 0 0.96875 -0.15625q0.40625 -0.15625 0.65625 -0.53125q0.265625 -0.359375 0.390625 -0.953125q0.125 -0.578125 0.125 -1.421875l0 -6.2812576l-4.15625 0l0 6.2812576q0 0.84375 0.09375 1.421875q0.109375 0.59375 0.34375 0.953125q0.25 0.375 0.625 0.53125q0.390625 0.15625 0.953125 0.15625zm-10.53125 23.410156l6.71875 0l0 -11.0625l-6.71875 0l0 -4.359375l16.109375 0l0 4.359375l-5.859375 0l0 11.0625l5.859375 0l0 4.34375l-16.109375 0l0 -4.34375zm6.1875 28.5q-1.5625 0 -2.796875 -0.78125q-1.234375 -0.765625 -2.09375 -2.1875q-0.84375 -1.421875 -1.296875 -3.453125q-0.4375 -2.015625 -0.4375 -4.515625q0 -1.109375 0.09375 -2.328125q0.078125 -1.203125 0.25 -2.359375q0.15625 -1.15625 0.359375 -2.171875q0.203125 -1.0 0.453125 -1.6875l3.8125 0q-0.3125 0.75 -0.59375 1.671875q-0.28125 0.921875 -0.5 2.0q-0.21875 1.078125 -0.34375 2.3125q-0.109375 1.234375 -0.109375 2.625q0 1.296875 0.140625 2.28125q0.15625 1.0 0.40625 1.71875q0.265625 0.734375 0.59375 1.203125q0.34375 0.484375 0.703125 0.78125q0.359375 0.296875 0.703125 0.40625q0.359375 0.125 0.65625 0.125l1.421875 0q-0.875 -1.1875 -1.453125 -2.84375q-0.5625 -1.65625 -0.5625 -3.765625q0 -2.4375 0.46875 -4.078125q0.484375 -1.640625 1.375 -2.625q0.890625 -0.984375 2.171875 -1.40625q1.296875 -0.40625 2.921875 -0.40625l3.578125 0l0 4.375l-3.140625 0q-0.953125 0 -1.703125 0.25q-0.734375 0.25 -1.234375 0.796875q-0.484375 0.546875 -0.75 1.40625q-0.25 0.875 -0.25 2.109375q0 1.03125 0.25 1.96875q0.265625 0.9375 0.6875 1.71875q0.421875 0.78125 0.953125 1.40625q0.546875 0.640625 1.109375 1.09375l4.078125 0l0 4.359375l-9.921875 0zm5.375 19.882812q0.234375 -0.453125 0.515625 -1.203125q0.28125 -0.75 0.53125 -1.703125q0.25 -0.953125 0.421875 -2.0625q0.171875 -1.109375 0.171875 -2.28125q0 -0.9375 -0.0625 -1.609375q-0.0625 -0.65625 -0.15625 -1.109375q-0.09375 -0.453125 -0.21875 -0.71875q-0.125 -0.265625 -0.25 -0.40625q-0.125 -0.140625 -0.265625 -0.1875q-0.125 -0.03125 -0.21875 -0.03125q-0.359375 0 -0.625 0.34375q-0.265625 0.359375 -0.46875 0.96875q-0.203125 0.609375 -0.390625 1.421875q-0.171875 0.8125 -0.375 1.71875q-0.1875 0.90625 -0.421875 1.875q-0.21875 0.96875 -0.53125 1.875q-0.296875 0.90625 -0.703125 1.703125q-0.40625 0.8125 -0.953125 1.421875q-0.53125 0.609375 -1.234375 0.953125q-0.703125 0.359375 -1.609375 0.359375q-1.15625 0 -1.984375 -0.40625q-0.828125 -0.40625 -1.40625 -1.09375q-0.578125 -0.6875 -0.921875 -1.59375q-0.34375 -0.890625 -0.53125 -1.890625q-0.1875 -0.984375 -0.25 -2.0q-0.0625 -1.015625 -0.0625 -1.921875q0 -2.390625 0.40625 -4.4375q0.390625 -2.03125 0.96875 -3.578125l3.84375 0q-0.890625 1.59375 -1.390625 3.65625q-0.5 2.0625 -0.5 4.40625q0 1.375 0.140625 2.25q0.140625 0.875 0.375 1.359375q0.234375 0.5 0.5 0.671875q0.265625 0.171875 0.515625 0.171875q0.390625 0 0.671875 -0.359375q0.28125 -0.34375 0.5 -0.953125q0.21875 -0.609375 0.390625 -1.421875q0.1875 -0.796875 0.375 -1.703125q0.1875 -0.90625 0.390625 -1.875q0.21875 -0.953125 0.5 -1.875q0.28125 -0.90625 0.65625 -1.71875q0.390625 -0.796875 0.90625 -1.40625q0.53125 -0.609375 1.21875 -0.96875q0.6875 -0.34375 1.578125 -0.34375q1.078125 0 1.84375 0.375q0.78125 0.375 1.3125 1.015625q0.546875 0.640625 0.890625 1.46875q0.34375 0.84375 0.53125 1.765625q0.1875 0.921875 0.25 1.875q0.078125 0.953125 0.078125 1.8125q0 0.9375 -0.09375 1.921875q-0.09375 0.984375 -0.265625 1.9375q-0.171875 0.96875 -0.390625 1.859375q-0.21875 0.90625 -0.46875 1.671875l-3.734375 0zm-11.5625 5.4414062l16.109375 0l0 4.359375l-16.109375 0l0 -4.359375zm1.109375 27.136719q-0.359375 -0.84375 -0.640625 -1.703125q-0.28125 -0.859375 -0.484375 -1.78125q-0.203125 -0.90625 -0.3125 -1.921875q-0.109375 -1.0 -0.109375 -2.171875q0 -2.453125 0.53125 -4.53125q0.53125 -2.0625 1.59375 -3.5625q1.0625 -1.484375 2.640625 -2.328125q1.59375 -0.828125 3.71875 -0.828125q2.109375 0 3.703125 0.828125q1.59375 0.84375 2.640625 2.328125q1.0625 1.5 1.59375 3.5625q0.53125 2.078125 0.53125 4.53125q0 1.171875 -0.109375 2.171875q-0.109375 1.015625 -0.3125 1.921875q-0.203125 0.921875 -0.484375 1.78125q-0.28125 0.859375 -0.625 1.703125l-3.921875 0q0.359375 -0.671875 0.71875 -1.40625q0.359375 -0.734375 0.640625 -1.625q0.296875 -0.890625 0.46875 -1.96875q0.1875 -1.0625 0.1875 -2.390625q0 -2.0625 -0.421875 -3.421875q-0.421875 -1.34375 -1.125 -2.15625q-0.703125 -0.796875 -1.609375 -1.125q-0.90625 -0.328125 -1.875 -0.328125q-0.65625 0 -1.28125 0.140625q-0.625 0.140625 -1.1875 0.46875q-0.546875 0.328125 -1.015625 0.84375q-0.46875 0.53125 -0.8125 1.3125q-0.34375 0.796875 -0.53125 1.84375q-0.1875 1.046875 -0.1875 2.421875q0 1.328125 0.15625 2.390625q0.171875 1.078125 0.453125 1.96875q0.28125 0.890625 0.640625 1.625q0.359375 0.734375 0.734375 1.40625l-3.90625 0l0 0zm10.453125 18.890625q0.234375 -0.453125 0.515625 -1.203125q0.28125 -0.75 0.53125 -1.703125q0.25 -0.953125 0.421875 -2.0625q0.171875 -1.109375 0.171875 -2.28125q0 -0.9375 -0.0625 -1.609375q-0.0625 -0.65625 -0.15625 -1.109375q-0.09375 -0.453125 -0.21875 -0.71875q-0.125 -0.265625 -0.25 -0.40625q-0.125 -0.140625 -0.265625 -0.1875q-0.125 -0.03125 -0.21875 -0.03125q-0.359375 0 -0.625 0.34375q-0.265625 0.359375 -0.46875 0.96875q-0.203125 0.609375 -0.390625 1.421875q-0.171875 0.8125 -0.375 1.71875q-0.1875 0.90625 -0.421875 1.875q-0.21875 0.96875 -0.53125 1.875q-0.296875 0.90625 -0.703125 1.703125q-0.40625 0.8125 -0.953125 1.421875q-0.53125 0.609375 -1.234375 0.953125q-0.703125 0.359375 -1.609375 0.359375q-1.15625 0 -1.984375 -0.40625q-0.828125 -0.40625 -1.40625 -1.09375q-0.578125 -0.6875 -0.921875 -1.59375q-0.34375 -0.890625 -0.53125 -1.890625q-0.1875 -0.984375 -0.25 -2.0q-0.0625 -1.015625 -0.0625 -1.921875q0 -2.390625 0.40625 -4.4375q0.390625 -2.03125 0.96875 -3.578125l3.84375 0q-0.890625 1.59375 -1.390625 3.65625q-0.5 2.0625 -0.5 4.40625q0 1.375 0.140625 2.25q0.140625 0.875 0.375 1.359375q0.234375 0.5 0.5 0.671875q0.265625 0.171875 0.515625 0.171875q0.390625 0 0.671875 -0.359375q0.28125 -0.34375 0.5 -0.953125q0.21875 -0.609375 0.390625 -1.421875q0.1875 -0.796875 0.375 -1.703125q0.1875 -0.90625 0.390625 -1.875q0.21875 -0.953125 0.5 -1.875q0.28125 -0.90625 0.65625 -1.71875q0.390625 -0.796875 0.90625 -1.40625q0.53125 -0.609375 1.21875 -0.96875q0.6875 -0.34375 1.578125 -0.34375q1.078125 0 1.84375 0.375q0.78125 0.375 1.3125 1.015625q0.546875 0.640625 0.890625 1.46875q0.34375 0.84375 0.53125 1.765625q0.1875 0.921875 0.25 1.875q0.078125 0.953125 0.078125 1.8125q0 0.9375 -0.09375 1.921875q-0.09375 0.984375 -0.265625 1.9375q-0.171875 0.96875 -0.390625 1.859375q-0.21875 0.90625 -0.46875 1.671875l-3.734375 0z" fill-rule="nonzero"/></g><path fill="#e06666" fill-opacity="0.7933" d="m134.94814 116.05723l-41.480324 0l13.826637 -13.826637l13.827049 0l0 -13.827049l13.826637 -13.82663z" fill-rule="evenodd"/><path stroke="#434343" stroke-width="1.0" stroke-linejoin="round" stroke-linecap="butt" d="m134.94814 116.05723l-41.480324 0l13.826637 -13.826637l13.827049 0l0 -13.827049l13.826637 -13.82663z" fill-rule="evenodd"/><path fill="#e06666" fill-opacity="0.7933" d="m238.60106 48.90347l-41.480316 0l13.805679 13.826633l13.848007 0l0 13.869041l13.82663 13.847633z" fill-rule="evenodd"/><path stroke="#434343" stroke-width="1.0" stroke-linejoin="round" stroke-linecap="butt" d="m238.60106 48.90347l-41.480316 0l13.805679 13.826633l13.848007 0l0 13.869041l13.82663 13.847633z" fill-rule="evenodd"/><path fill="#e06666" fill-opacity="0.7933" d="m173.6477 116.05723l41.543304 0l-13.847626 -13.826637l-13.869049 0l0 -13.848015l-13.82663 -13.805664z" fill-rule="evenodd"/><path stroke="#434343" stroke-width="1.0" stroke-linejoin="round" stroke-linecap="butt" d="m173.6477 116.05723l41.543304 0l-13.847626 -13.826637l-13.869049 0l0 -13.848015l-13.82663 -13.805664z" fill-rule="evenodd"/><g filter="url(#shadowFilter-p.3)"><use xlink:href="#p.3" transform="matrix(1.0 0.0 0.0 1.0 2.999543044619422 -0.052356955380587815)"/></g><defs><filter id="shadowFilter-p.3" filterUnits="userSpaceOnUse"><feGaussianBlur in="SourceAlpha" stdDeviation="2.5" result="blur"/><feComponentTransfer in="blur" color-interpolation-filters="sRGB"><feFuncR type="linear" slope="0" intercept="0.0"/><feFuncG type="linear" slope="0" intercept="0.0"/><feFuncB type="linear" slope="0" intercept="0.0"/><feFuncA type="linear" slope="1.0" intercept="0"/></feComponentTransfer></filter></defs><g id="p.3"><path fill="#000000" fill-opacity="0.0" d="m9.6587925 170.72243l194.04724 0l0 151.9055l-194.04724 0z" fill-rule="evenodd"/><path fill="#434343" d="m129.67854 260.89743q0 5.703125 -2.8281326 10.75q-2.8125 5.03125 -8.46875 8.796875q-5.640625 3.75 -14.078125 5.9375q-8.4375 2.1875 -19.734375 2.1875q-11.28125 0 -19.78125 -2.1875q-8.484371 -2.1875 -14.140621 -5.9375q-5.640625 -3.765625 -8.46875 -8.796875q-2.8125 -5.046875 -2.8125 -10.75l0 -50.40625l20.46875 0l0 43.046875q0 3.828125 0.96875 7.234375q0.96875 3.390625 3.6562462 5.9375q2.6875 2.546875 7.53125 4.046875q4.84375 1.484375 12.578125 1.484375q7.703125 0 12.515625 -1.484375q4.8125 -1.5 7.484375 -4.046875q2.6875 -2.546875 3.625 -5.9375q0.953125 -3.40625 0.953125 -7.234375l0 -43.046875l20.531258 0l0 50.40625l0 0zm23.230484 25.625l0 -76.03125l20.53125 0l0 76.03125l-20.53125 0z" fill-rule="nonzero"/></g><g filter="url(#shadowFilter-p.4)"><use xlink:href="#p.4" transform="matrix(1.0 0.0 0.0 1.0 2.999543044619422 -0.05235721784775369)"/></g><defs><filter id="shadowFilter-p.4" filterUnits="userSpaceOnUse"><feGaussianBlur in="SourceAlpha" stdDeviation="2.5" result="blur"/><feComponentTransfer in="blur" color-interpolation-filters="sRGB"><feFuncR type="linear" slope="0" intercept="0.0"/><feFuncG type="linear" slope="0" intercept="0.0"/><feFuncB type="linear" slope="0" intercept="0.0"/><feFuncA type="linear" slope="0.6" intercept="0"/></feComponentTransfer></filter></defs><g id="p.4"><path fill="#000000" fill-opacity="0.0" d="m36.1197 228.1095l0 -157.63779l48.47244 0l0 157.63779z" fill-rule="evenodd"/><path fill="#434343" d="m56.597202 185.82576q-0.234375 0.453125 -0.515625 1.203125q-0.28125 0.75 -0.53125 1.703125q-0.25 0.953125 -0.421875 2.0625q-0.171875 1.109375 -0.171875 2.28125q0 0.9375 0.0625 1.609375q0.0625 0.65625 0.15625 1.109375q0.09375 0.453125 0.21875 0.71875q0.125 0.265625 0.25 0.40625q0.125 0.140625 0.265625 0.1875q0.125 0.03125 0.21875 0.03125q0.359375 0 0.625 -0.34375q0.265625 -0.359375 0.46875 -0.96875q0.203125 -0.609375 0.390625 -1.421875q0.171875 -0.8125 0.375 -1.71875q0.1875 -0.90625 0.421875 -1.875q0.21875 -0.96875 0.53125 -1.875q0.296875 -0.90625 0.703125 -1.703125q0.40625 -0.8125 0.953125 -1.421875q0.53125 -0.609375 1.234375 -0.953125q0.703125 -0.359375 1.609375 -0.359375q1.1562462 0 1.9843712 0.40625q0.828125 0.40625 1.40625 1.09375q0.578125 0.6875 0.921875 1.59375q0.34375 0.890625 0.53125 1.890625q0.1875 0.984375 0.25 2.0q0.0625 1.015625 0.0625 1.921875q0 2.390625 -0.40625 4.4375q-0.390625 2.03125 -0.96875 3.578125l-3.8437462 0q0.8906212 -1.59375 1.3906212 -3.65625q0.5 -2.0625 0.5 -4.40625q0 -1.375 -0.140625 -2.25q-0.140625 -0.875 -0.375 -1.359375q-0.234375 -0.5 -0.5 -0.671875q-0.2656212 -0.171875 -0.5156212 -0.171875q-0.390625 0 -0.671875 0.359375q-0.28125 0.34375 -0.5 0.953125q-0.21875 0.609375 -0.390625 1.421875q-0.1875 0.796875 -0.375 1.703125q-0.1875 0.90625 -0.390625 1.875q-0.21875 0.953125 -0.5 1.875q-0.28125 0.90625 -0.65625 1.71875q-0.390625 0.796875 -0.90625 1.40625q-0.53125 0.609375 -1.21875 0.96875q-0.6875 0.34375 -1.578125 0.34375q-1.078125 0 -1.84375 -0.375q-0.78125 -0.375 -1.3125 -1.015625q-0.546875 -0.640625 -0.890625 -1.46875q-0.34375 -0.84375 -0.53125 -1.765625q-0.1875 -0.921875 -0.25 -1.875q-0.078125 -0.953125 -0.078125 -1.8125q0 -0.9375 0.09375 -1.921875q0.09375 -0.984375 0.265625 -1.9375q0.171875 -0.96875 0.390625 -1.859375q0.21875 -0.90625 0.46875 -1.671875l3.734375 0zm10.453121 -23.191406q0.359375 0.84375 0.640625 1.703125q0.28125 0.859375 0.484375 1.78125q0.203125 0.90625 0.3125 1.921875q0.109375 1.0 0.109375 2.171875q0 2.453125 -0.53125 4.53125q-0.53125 2.0625 -1.59375 3.5625q-1.0625 1.484375 -2.6406212 2.328125q-1.59375 0.828125 -3.71875 0.828125q-2.109375 0 -3.703125 -0.828125q-1.59375 -0.84375 -2.640625 -2.328125q-1.0625 -1.5 -1.59375 -3.5625q-0.53125 -2.078125 -0.53125 -4.53125q0 -1.171875 0.109375 -2.171875q0.109375 -1.015625 0.3125 -1.921875q0.203125 -0.921875 0.484375 -1.78125q0.28125 -0.859375 0.625 -1.703125l3.921875 0q-0.359375 0.671875 -0.71875 1.40625q-0.359375 0.734375 -0.640625 1.625q-0.296875 0.890625 -0.46875 1.96875q-0.1875 1.0625 -0.1875 2.390625q0 2.0625 0.421875 3.421875q0.421875 1.34375 1.125 2.15625q0.703125 0.796875 1.609375 1.125q0.90625 0.328125 1.875 0.328125q0.65625 0 1.28125 -0.140625q0.625 -0.140625 1.1875 -0.46875q0.546875 -0.328125 1.015625 -0.84375q0.4687462 -0.53125 0.8124962 -1.3125q0.34375 -0.796875 0.53125 -1.84375q0.1875 -1.046875 0.1875 -2.421875q0 -1.328125 -0.15625 -2.390625q-0.171875 -1.078125 -0.453125 -1.96875q-0.28125 -0.890625 -0.6406212 -1.625q-0.359375 -0.734375 -0.734375 -1.40625l3.9062462 0l0 0zm1.109375 -17.703125l-1.578125 0q0.453125 0.828125 0.8125 1.78125q0.34375 0.953125 0.59375 1.984375q0.25 1.03125 0.359375 2.140625q0.125 1.09375 0.125 2.203125q0 1.296875 -0.25 2.515625q-0.234375 1.203125 -0.78125 2.140625q-0.5625 0.9375 -1.453125 1.515625q-0.890625 0.5625 -2.1718712 0.5625q-1.640625 0 -2.71875 -0.890625q-1.078125 -0.890625 -1.765625 -2.71875q-0.703125 -1.828125 -1.078125 -4.625q-0.375 -2.796875 -0.578125 -6.609375l-0.34375 0q-0.40625 0 -0.796875 0.21875q-0.390625 0.203125 -0.6875 0.765625q-0.296875 0.546875 -0.484375 1.515625q-0.1875 0.96875 -0.1875 2.46875q0 1.1875 0.125 2.34375q0.125 1.140625 0.34375 2.21875q0.203125 1.078125 0.484375 2.046875q0.28125 0.953125 0.578125 1.734375l-3.859375 0q-0.21875 -0.828125 -0.40625 -1.84375q-0.203125 -1.015625 -0.34375 -2.109375q-0.15625 -1.109375 -0.234375 -2.234375q-0.09375 -1.125 -0.09375 -2.15625q0 -2.03125 0.328125 -3.734375q0.328125 -1.71875 1.03125 -2.953125q0.703125 -1.234375 1.78125 -1.921875q1.078125 -0.703125 2.578125 -0.703125l10.671871 0l0 4.34375zm-7.343746 0q0.09375 2.5 0.265625 4.265625q0.171875 1.75 0.40625 2.90625q0.234375 1.15625 0.515625 1.828125q0.265625 0.65625 0.546875 0.984375q0.28125 0.328125 0.5625 0.40625q0.28125 0.078125 0.515625 0.078125q0.28125 0 0.5468712 -0.15625q0.25 -0.15625 0.453125 -0.53125q0.203125 -0.390625 0.328125 -1.015625q0.109375 -0.640625 0.109375 -1.59375q0 -1.0625 -0.15625 -2.078125q-0.171875 -1.03125 -0.453125 -1.9375q-0.296875 -0.921875 -0.6874962 -1.71875q-0.390625 -0.8125 -0.84375 -1.4375l-2.109375 0zm0.453125 -13.671875q1.0 0 1.640625 -0.1875q0.640625 -0.1875 1.015625 -0.609375q0.3749962 -0.421875 0.5156212 -1.09375q0.140625 -0.671875 0.140625 -1.6562576l0 -8.25l3.578125 0l0 9.140633q0 1.90625 -0.3125 3.234375q-0.3125 1.328125 -0.953125 2.171875q-0.65625 0.84375 -1.65625 1.234375q-1.0 0.375 -2.3593712 0.375l-10.828125 0l0 -4.359375l9.21875 0zm6.093746 -33.105484q0.65625 1.9687576 0.9375 3.9531326q0.296875 1.96875 0.296875 4.03125q0 2.640625 -0.5625 4.703125q-0.578125 2.046875 -1.65625 3.453125q-1.078125 1.40625 -2.6406212 2.15625q-1.5625 0.734375 -3.53125 0.734375q-1.828125 0 -3.390625 -0.75q-1.5625 -0.75 -2.71875 -2.109375q-1.15625 -1.359375 -1.796875 -3.296875q-0.65625 -1.9375 -0.65625 -4.3125q0 -2.1875 0.59375 -4.015625q0.59375 -1.828125 1.75 -3.1250076q1.15625 -1.3125 2.859375 -2.03125q1.703125 -0.71875 3.921875 -0.71875l1.078125 0l0 15.859383q0.75 -0.203125 1.390625 -0.6875q0.625 -0.484375 1.0781212 -1.3125q0.4375 -0.84375 0.6875 -2.046875q0.25 -1.21875 0.25 -2.90625q0 -1.203125 -0.140625 -2.34375q-0.15625 -1.15625 -0.390625 -2.140625q-0.25 -1.0 -0.53125 -1.7968826q-0.2968712 -0.8125 -0.5937462 -1.296875l3.7656212 0zm-8.703121 3.0000076q-0.609375 0.046875 -1.234375 0.359375q-0.640625 0.296875 -1.15625 0.9375q-0.515625 0.640625 -0.84375 1.6875q-0.34375 1.046875 -0.34375 2.59375q0 1.46875 0.359375 2.546875q0.359375 1.0625 0.90625 1.78125q0.53125 0.71875 1.15625 1.125q0.625 0.390625 1.15625 0.5l0 -11.53125z" fill-rule="nonzero"/></g><g filter="url(#shadowFilter-p.5)"><use xlink:href="#p.5" transform="matrix(1.0 0.0 0.0 1.0 0.0 2.0)"/></g><defs><filter id="shadowFilter-p.5" filterUnits="userSpaceOnUse"><feGaussianBlur in="SourceAlpha" stdDeviation="2.0" result="blur"/><feComponentTransfer in="blur" color-interpolation-filters="sRGB"><feFuncR type="linear" slope="0" intercept="0.0"/><feFuncG type="linear" slope="0" intercept="0.0"/><feFuncB type="linear" slope="0" intercept="0.0"/><feFuncA type="linear" slope="0.5" intercept="0"/></feComponentTransfer></filter></defs><g id="p.5"><path fill="#547cbe" d="m23.773369 20.821522l0 0c0 -9.001806 7.2974052 -16.299212 16.299213 -16.299212l0 0c4.3228188 0 8.468586 1.7172337 11.525284 4.773929c3.056694 3.056695 4.773926 7.202464 4.773926 11.525283l0 0c0 9.001806 -7.2974052 16.299213 -16.29921 16.299213l0 0c-9.001808 0 -16.299213 -7.297407 -16.299213 -16.299213z" fill-rule="evenodd"/><path stroke="#434343" stroke-width="2.0" stroke-linejoin="round" stroke-linecap="butt" d="m23.773369 20.821522l0 0c0 -9.001806 7.2974052 -16.299212 16.299213 -16.299212l0 0c4.3228188 0 8.468586 1.7172337 11.525284 4.773929c3.056694 3.056695 4.773926 7.202464 4.773926 11.525283l0 0c0 9.001806 -7.2974052 16.299213 -16.29921 16.299213l0 0c-9.001808 0 -16.299213 -7.297407 -16.299213 -16.299213z" fill-rule="evenodd"/></g><g filter="url(#shadowFilter-p.6)"><use xlink:href="#p.6" transform="matrix(1.0 0.0 0.0 1.0 0.0 2.0)"/></g><defs><filter id="shadowFilter-p.6" filterUnits="userSpaceOnUse"><feGaussianBlur in="SourceAlpha" stdDeviation="2.0" result="blur"/><feComponentTransfer in="blur" color-interpolation-filters="sRGB"><feFuncR type="linear" slope="0" intercept="0.0"/><feFuncG type="linear" slope="0" intercept="0.0"/><feFuncB type="linear" slope="0" intercept="0.0"/><feFuncA type="linear" slope="0.5" intercept="0"/></feComponentTransfer></filter></defs><g id="p.6"><path fill="#568940" d="m242.66667 277.94772l0 0c0 -9.001831 7.297409 -16.299225 16.29921 -16.299225l0 0c4.322815 0 8.468597 1.7172241 11.525299 4.773926c3.0567017 3.0567017 4.773926 7.2024536 4.773926 11.525299l0 0c0 9.001801 -7.297394 16.299194 -16.299225 16.299194l0 0c-9.001801 0 -16.29921 -7.297394 -16.29921 -16.299194z" fill-rule="evenodd"/><path stroke="#434343" stroke-width="2.0" stroke-linejoin="round" stroke-linecap="butt" d="m242.66667 277.94772l0 0c0 -9.001831 7.297409 -16.299225 16.29921 -16.299225l0 0c4.322815 0 8.468597 1.7172241 11.525299 4.773926c3.0567017 3.0567017 4.773926 7.2024536 4.773926 11.525299l0 0c0 9.001801 -7.297394 16.299194 -16.299225 16.299194l0 0c-9.001801 0 -16.29921 -7.297394 -16.29921 -16.299194z" fill-rule="evenodd"/></g><g filter="url(#shadowFilter-p.7)"><use xlink:href="#p.7" transform="matrix(1.0 0.0 0.0 1.0 0.0 2.0)"/></g><defs><filter id="shadowFilter-p.7" filterUnits="userSpaceOnUse"><feGaussianBlur in="SourceAlpha" stdDeviation="2.0" result="blur"/><feComponentTransfer in="blur" color-interpolation-filters="sRGB"><feFuncR type="linear" slope="0" intercept="0.0"/><feFuncG type="linear" slope="0" intercept="0.0"/><feFuncB type="linear" slope="0" intercept="0.0"/><feFuncA type="linear" slope="0.5" intercept="0"/></feComponentTransfer></filter></defs><g id="p.7"><path fill="#000000" fill-opacity="0.0" d="m171.40858 233.20872l51.496063 0l0 74.3307l-51.496063 0z" fill-rule="evenodd"/><path fill="#e06666" d="m182.22108 285.72873l0 -5.4375q5.9375 -2.734375 10.296875 -4.875q4.375 -2.140625 7.234375 -3.890625q2.875 -1.75 4.265625 -3.203125q1.40625 -1.453125 1.40625 -2.796875q0 -0.375 -0.078125 -0.84375q-0.078125 -0.484375 -0.359375 -0.984375q-0.28125 -0.5 -0.8125 -0.984375q-0.53125 -0.484375 -1.46875 -0.84375q-0.921875 -0.375 -2.296875 -0.609375q-1.359375 -0.234375 -3.3125 -0.234375q-1.796875 0 -3.75 0.234375q-1.9375 0.234375 -3.84375 0.65625q-1.90625 0.421875 -3.671875 1.015625q-1.765625 0.59375 -3.25 1.34375l0 -7.234375q3.046875 -1.0625153 6.78125 -1.7812653q3.734375 -0.71875 7.875 -0.71875q3.859375 0 6.90625 0.6875q3.0625 0.6875 5.171875 1.9843903q2.125 1.296875 3.234375 3.140625q1.125 1.84375 1.125 4.171875q0 1.28125 -0.28125 2.40625q-0.265625 1.109375 -0.984375 2.171875q-0.703125 1.0625 -1.90625 2.140625q-1.203125 1.078125 -3.0625 2.28125q-1.84375 1.1875 -4.421875 2.578125q-2.5625 1.375 -5.96875 3.046875l17.265625 0l0 6.578125l-32.09375 0z" fill-rule="nonzero"/></g></g></svg>